<svg height="682.66669pt" viewBox="-21 -21 682.66669 682.66669" width="682.66669pt" xmlns="http://www.w3.org/2000/svg" fill="white"><path d="m546.273438 93.480469c-60.4375-60.28125-140.800782-93.480469-226.273438-93.480469s-165.835938 33.199219-226.273438 93.480469c-60.441406 60.285156-93.726562 140.433593-93.726562 225.691406 0 67.398437 20.625 131.378906 59.761719 185.746094l-59.339844 135.082031 148.398437-51.125c51.179688 32.394531 110.160157 49.464844 171.179688 49.464844 85.472656 0 165.835938-33.199219 226.273438-93.480469 60.441406-60.285156 93.726562-140.4375 93.726562-225.6875s-33.285156-165.40625-93.726562-225.691406zm-37.542969 335.332031c-29.238281 43.121094-29.238281 43.121094-29.894531 43.917969-16.261719 19.804687-41.65625 30.042969-73.347657 30.042969-11.796875 0-24.464843-1.414063-37.863281-4.292969-45.03125-9.648438-94.191406-34.863281-138.429688-71-44.234374-36.144531-78.707031-79.246094-97.0625-121.382813-20.125-46.210937-18.910156-86.644531 3.433594-113.851562.648438-.78125.648438-.78125 38.839844-39.585938l15.261719-15.507812 84.320312 111.824218-29.765625 36.25c14.503906 20.046876 31.640625 41.429688 53.261719 59.09375 21.621094 17.667969 46.015625 30.210938 68.578125 40.445313l29.992188-36.515625 124.589843 62.996094zm0 0"/></svg>